<?xml version="1.0" encoding="utf-8"?>
<!-- Generator: Adobe Illustrator 25.4.1, SVG Export Plug-In . SVG Version: 6.00 Build 0)  -->
<svg version="1.1" id="Warstwa_1" xmlns="http://www.w3.org/2000/svg" xmlns:xlink="http://www.w3.org/1999/xlink" x="0px" y="0px"
	 viewBox="0 0 160.4 63.9" style="enable-background:new 0 0 160.4 63.9;" xml:space="preserve">
<style type="text/css">
	.st0{enable-background:new    ;}
	.st1{fill:#4B4B4B;}
	.st2{fill:#4B4B4B;stroke:#4B4B4B;stroke-width:0.75;stroke-miterlimit:10;}
</style>
<g class="st0">
	<path class="st1" d="M15,54.7c0.1,0,0.2,0,0.3,0.1c0.1,0,0.2,0.1,0.3,0.2l1.5,1.6c-0.7,0.9-1.5,1.5-2.5,1.9s-2.1,0.7-3.5,0.7
		c-1.2,0-2.3-0.2-3.3-0.6c-1-0.4-1.8-1-2.5-1.7S4,55.1,3.7,54.1c-0.4-1-0.5-2.1-0.5-3.3c0-1.2,0.2-2.3,0.6-3.3
		c0.4-1,0.9-1.9,1.7-2.6c0.7-0.7,1.6-1.3,2.6-1.7c1-0.4,2.1-0.6,3.3-0.6c0.6,0,1.2,0.1,1.7,0.2c0.5,0.1,1,0.3,1.5,0.4
		c0.5,0.2,0.9,0.4,1.3,0.7c0.4,0.3,0.7,0.6,1,0.9l-1.3,1.7c-0.1,0.1-0.2,0.2-0.3,0.3c-0.1,0.1-0.3,0.1-0.5,0.1c-0.1,0-0.3,0-0.4-0.1
		c-0.1-0.1-0.2-0.1-0.4-0.2c-0.1-0.1-0.3-0.2-0.4-0.3c-0.2-0.1-0.3-0.2-0.6-0.3c-0.2-0.1-0.5-0.2-0.8-0.2c-0.3-0.1-0.6-0.1-1-0.1
		c-0.6,0-1.2,0.1-1.7,0.3s-1,0.6-1.3,1c-0.4,0.4-0.7,1-0.9,1.6C7.1,49.2,7,50,7,50.8c0,0.8,0.1,1.6,0.3,2.2c0.2,0.6,0.5,1.2,0.9,1.6
		c0.4,0.4,0.8,0.8,1.4,1c0.5,0.2,1.1,0.3,1.7,0.3c0.3,0,0.7,0,0.9-0.1c0.3,0,0.5-0.1,0.8-0.2s0.5-0.2,0.7-0.3
		c0.2-0.1,0.4-0.3,0.7-0.5c0.1-0.1,0.2-0.1,0.3-0.2C14.7,54.7,14.8,54.7,15,54.7z"/>
	<path class="st1" d="M23.3,47.2c0.9,0,1.7,0.1,2.4,0.4c0.7,0.3,1.3,0.7,1.9,1.2c0.5,0.5,0.9,1.1,1.2,1.9c0.3,0.7,0.4,1.6,0.4,2.5
		c0,0.9-0.1,1.8-0.4,2.5c-0.3,0.7-0.7,1.4-1.2,1.9c-0.5,0.5-1.1,0.9-1.9,1.2c-0.7,0.3-1.5,0.4-2.4,0.4c-0.9,0-1.7-0.1-2.4-0.4
		c-0.7-0.3-1.3-0.7-1.9-1.2c-0.5-0.5-0.9-1.1-1.2-1.9c-0.3-0.7-0.4-1.6-0.4-2.5c0-0.9,0.1-1.7,0.4-2.5c0.3-0.7,0.7-1.4,1.2-1.9
		c0.5-0.5,1.1-0.9,1.9-1.2C21.6,47.3,22.4,47.2,23.3,47.2z M23.3,56.5c0.8,0,1.4-0.3,1.8-0.8c0.4-0.6,0.6-1.4,0.6-2.6
		c0-1.1-0.2-2-0.6-2.6c-0.4-0.6-1-0.8-1.8-0.8c-0.8,0-1.4,0.3-1.8,0.8c-0.4,0.6-0.6,1.4-0.6,2.6c0,1.1,0.2,2,0.6,2.6
		C21.9,56.3,22.5,56.5,23.3,56.5z"/>
	<path class="st1" d="M30.9,58.9V47.4h2.1c0.4,0,0.7,0.2,0.8,0.6l0.2,0.6c0.2-0.2,0.4-0.4,0.6-0.6s0.4-0.3,0.7-0.4
		c0.2-0.1,0.5-0.2,0.8-0.3c0.3-0.1,0.6-0.1,0.9-0.1c0.7,0,1.3,0.2,1.7,0.5c0.5,0.4,0.8,0.8,1,1.4c0.2-0.4,0.4-0.7,0.7-0.9
		c0.3-0.3,0.6-0.5,0.9-0.6s0.7-0.3,1-0.3s0.7-0.1,1.1-0.1c0.7,0,1.2,0.1,1.8,0.3c0.5,0.2,0.9,0.5,1.3,0.9s0.6,0.8,0.8,1.4
		s0.3,1.2,0.3,1.9v7.3h-3.5v-7.3c0-1.2-0.5-1.8-1.5-1.8c-0.5,0-0.9,0.2-1.2,0.5C41.2,50.6,41,51,41,51.6v7.3h-3.5v-7.3
		c0-0.7-0.1-1.1-0.4-1.4c-0.3-0.3-0.6-0.4-1.1-0.4c-0.3,0-0.6,0.1-0.9,0.2c-0.3,0.1-0.5,0.3-0.8,0.6v8.4H30.9z"/>
	<path class="st1" d="M53.1,48.8c0.5-0.5,1-0.9,1.5-1.2c0.6-0.3,1.3-0.5,2.1-0.5c0.6,0,1.2,0.1,1.7,0.4s1,0.7,1.3,1.2
		c0.4,0.5,0.7,1.1,0.9,1.9c0.2,0.7,0.3,1.6,0.3,2.5c0,0.9-0.1,1.7-0.4,2.4c-0.2,0.7-0.6,1.4-1,1.9s-1,1-1.6,1.3s-1.3,0.5-2,0.5
		c-0.6,0-1.1-0.1-1.5-0.3c-0.4-0.2-0.8-0.4-1.1-0.7v4.4h-3.5V47.4H52c0.4,0,0.7,0.2,0.8,0.6L53.1,48.8z M53.3,55.8
		c0.3,0.3,0.5,0.5,0.8,0.6c0.3,0.1,0.6,0.2,1,0.2c0.3,0,0.6-0.1,0.9-0.2c0.3-0.1,0.5-0.3,0.7-0.6c0.2-0.3,0.4-0.6,0.5-1.1
		c0.1-0.4,0.2-1,0.2-1.6c0-0.6,0-1.1-0.1-1.5s-0.2-0.8-0.4-1c-0.2-0.3-0.4-0.4-0.6-0.6c-0.2-0.1-0.5-0.2-0.7-0.2
		c-0.5,0-0.9,0.1-1.2,0.3c-0.3,0.2-0.6,0.5-0.9,0.8V55.8z"/>
	<path class="st1" d="M62.4,49c0.7-0.6,1.5-1.1,2.3-1.4c0.9-0.3,1.8-0.5,2.7-0.5c0.7,0,1.3,0.1,1.9,0.3c0.6,0.2,1,0.5,1.4,0.9
		c0.4,0.4,0.7,0.9,0.9,1.4c0.2,0.6,0.3,1.2,0.3,1.8v7.2h-1.6c-0.3,0-0.6,0-0.7-0.1s-0.3-0.3-0.4-0.6L69,57.6
		c-0.3,0.2-0.6,0.5-0.8,0.6c-0.3,0.2-0.5,0.3-0.8,0.5s-0.6,0.2-0.9,0.3c-0.3,0.1-0.7,0.1-1.1,0.1c-0.5,0-1-0.1-1.4-0.2
		c-0.4-0.1-0.8-0.3-1.1-0.6c-0.3-0.3-0.5-0.6-0.7-1c-0.2-0.4-0.2-0.9-0.2-1.4c0-0.4,0.1-0.8,0.3-1.3c0.2-0.4,0.6-0.8,1.1-1.2
		c0.5-0.4,1.2-0.6,2.1-0.9c0.9-0.2,2-0.4,3.3-0.4v-0.5c0-0.7-0.1-1.2-0.4-1.5c-0.3-0.3-0.7-0.5-1.2-0.5c-0.4,0-0.7,0-1,0.1
		c-0.3,0.1-0.5,0.2-0.7,0.3c-0.2,0.1-0.4,0.2-0.6,0.3c-0.2,0.1-0.4,0.1-0.7,0.1c-0.2,0-0.4-0.1-0.6-0.2c-0.2-0.1-0.3-0.3-0.4-0.4
		L62.4,49z M68.7,54.2c-0.7,0-1.3,0.1-1.7,0.2c-0.4,0.1-0.8,0.2-1.1,0.3c-0.3,0.1-0.4,0.3-0.5,0.5c-0.1,0.2-0.2,0.4-0.2,0.6
		c0,0.4,0.1,0.7,0.3,0.8c0.2,0.2,0.5,0.2,0.9,0.2c0.4,0,0.8-0.1,1.2-0.2c0.3-0.2,0.7-0.4,1-0.8V54.2z"/>
	<path class="st1" d="M77.4,48.6c0.2-0.2,0.5-0.4,0.7-0.6c0.2-0.2,0.5-0.3,0.8-0.5c0.3-0.1,0.6-0.2,0.9-0.3c0.3-0.1,0.7-0.1,1-0.1
		c0.6,0,1.2,0.1,1.7,0.3c0.5,0.2,0.9,0.5,1.2,0.9c0.3,0.4,0.6,0.9,0.8,1.4c0.2,0.5,0.3,1.1,0.3,1.8v7.3h-3.5v-7.3
		c0-0.6-0.1-1-0.4-1.3c-0.3-0.3-0.6-0.5-1.1-0.5c-0.4,0-0.7,0.1-1.1,0.2s-0.7,0.4-1,0.7v8.2h-3.5V47.4h2.1c0.4,0,0.7,0.2,0.8,0.6
		L77.4,48.6z"/>
	<path class="st1" d="M97.6,47.4l-6.2,14.6c-0.1,0.2-0.2,0.4-0.4,0.5c-0.1,0.1-0.4,0.2-0.7,0.2h-2.6l2.2-4.7l-4.6-10.5h3.1
		c0.3,0,0.5,0.1,0.6,0.2c0.1,0.1,0.3,0.3,0.3,0.4l1.9,5c0.2,0.5,0.3,0.9,0.4,1.4c0.1-0.2,0.2-0.5,0.2-0.7c0.1-0.2,0.2-0.5,0.3-0.7
		l1.7-5c0.1-0.2,0.2-0.3,0.4-0.4c0.2-0.1,0.4-0.2,0.6-0.2H97.6z"/>
	<path class="st1" d="M106.4,48.6c0.2-0.2,0.5-0.4,0.7-0.6c0.2-0.2,0.5-0.3,0.8-0.5c0.3-0.1,0.6-0.2,0.9-0.3c0.3-0.1,0.7-0.1,1-0.1
		c0.6,0,1.2,0.1,1.7,0.3c0.5,0.2,0.9,0.5,1.2,0.9c0.3,0.4,0.6,0.9,0.8,1.4c0.2,0.5,0.3,1.1,0.3,1.8v7.3h-3.5v-7.3
		c0-0.6-0.1-1-0.4-1.3c-0.3-0.3-0.6-0.5-1.1-0.5c-0.4,0-0.7,0.1-1.1,0.2c-0.3,0.2-0.7,0.4-1,0.7v8.2h-3.5V47.4h2.1
		c0.4,0,0.7,0.2,0.8,0.6L106.4,48.6z"/>
	<path class="st1" d="M115.6,49c0.7-0.6,1.5-1.1,2.3-1.4c0.9-0.3,1.8-0.5,2.7-0.5c0.7,0,1.3,0.1,1.9,0.3c0.6,0.2,1,0.5,1.4,0.9
		c0.4,0.4,0.7,0.9,0.9,1.4c0.2,0.6,0.3,1.2,0.3,1.8v7.2h-1.6c-0.3,0-0.6,0-0.7-0.1c-0.2-0.1-0.3-0.3-0.4-0.6l-0.2-0.6
		c-0.3,0.2-0.6,0.5-0.8,0.6s-0.5,0.3-0.8,0.5c-0.3,0.1-0.6,0.2-0.9,0.3c-0.3,0.1-0.7,0.1-1.1,0.1c-0.5,0-1-0.1-1.4-0.2
		c-0.4-0.1-0.8-0.3-1.1-0.6c-0.3-0.3-0.5-0.6-0.7-1c-0.2-0.4-0.2-0.9-0.2-1.4c0-0.4,0.1-0.8,0.3-1.3c0.2-0.4,0.6-0.8,1.1-1.2
		s1.2-0.6,2.1-0.9c0.9-0.2,2-0.4,3.3-0.4v-0.5c0-0.7-0.1-1.2-0.4-1.5c-0.3-0.3-0.7-0.5-1.2-0.5c-0.4,0-0.7,0-1,0.1
		c-0.3,0.1-0.5,0.2-0.7,0.3c-0.2,0.1-0.4,0.2-0.6,0.3c-0.2,0.1-0.4,0.1-0.7,0.1c-0.2,0-0.4-0.1-0.6-0.2c-0.2-0.1-0.3-0.3-0.4-0.4
		L115.6,49z M121.8,54.2c-0.7,0-1.3,0.1-1.7,0.2c-0.4,0.1-0.8,0.2-1.1,0.3c-0.3,0.1-0.4,0.3-0.5,0.5c-0.1,0.2-0.2,0.4-0.2,0.6
		c0,0.4,0.1,0.7,0.3,0.8c0.2,0.2,0.5,0.2,0.9,0.2c0.4,0,0.8-0.1,1.2-0.2c0.3-0.2,0.7-0.4,1-0.8V54.2z"/>
	<path class="st1" d="M127.4,58.9V47.4h2.1c0.4,0,0.7,0.2,0.8,0.6l0.2,0.6c0.2-0.2,0.4-0.4,0.6-0.6s0.4-0.3,0.7-0.4
		c0.2-0.1,0.5-0.2,0.8-0.3c0.3-0.1,0.6-0.1,0.9-0.1c0.7,0,1.3,0.2,1.7,0.5c0.5,0.4,0.8,0.8,1,1.4c0.2-0.4,0.4-0.7,0.7-0.9
		c0.3-0.3,0.6-0.5,0.9-0.6c0.3-0.2,0.7-0.3,1-0.3s0.7-0.1,1.1-0.1c0.7,0,1.2,0.1,1.8,0.3c0.5,0.2,0.9,0.5,1.3,0.9s0.6,0.8,0.8,1.4
		c0.2,0.5,0.3,1.2,0.3,1.9v7.3h-3.5v-7.3c0-1.2-0.5-1.8-1.5-1.8c-0.5,0-0.9,0.2-1.2,0.5c-0.3,0.3-0.5,0.8-0.5,1.3v7.3h-3.5v-7.3
		c0-0.7-0.1-1.1-0.4-1.4c-0.3-0.3-0.6-0.4-1.1-0.4c-0.3,0-0.6,0.1-0.9,0.2c-0.3,0.1-0.5,0.3-0.8,0.6v8.4H127.4z"/>
	<path class="st1" d="M149.2,53.8c0.1,1,0.4,1.7,0.9,2.1s1.1,0.7,1.8,0.7c0.4,0,0.7,0,1-0.1s0.5-0.2,0.8-0.3
		c0.2-0.1,0.4-0.2,0.6-0.3s0.4-0.1,0.6-0.1c0.3,0,0.5,0.1,0.6,0.3l1,1.2c-0.4,0.4-0.7,0.7-1.2,1c-0.4,0.3-0.8,0.5-1.3,0.6
		s-0.9,0.2-1.3,0.3s-0.8,0.1-1.2,0.1c-0.8,0-1.6-0.1-2.3-0.4c-0.7-0.3-1.3-0.7-1.9-1.2c-0.5-0.5-1-1.2-1.3-1.9
		c-0.3-0.8-0.5-1.7-0.5-2.7c0-0.8,0.1-1.5,0.4-2.2c0.3-0.7,0.6-1.3,1.1-1.8c0.5-0.5,1.1-0.9,1.8-1.2c0.7-0.3,1.5-0.5,2.4-0.5
		c0.8,0,1.5,0.1,2.1,0.4c0.6,0.2,1.2,0.6,1.6,1s0.8,1,1.1,1.7s0.4,1.4,0.4,2.2c0,0.3,0,0.5,0,0.6c0,0.2-0.1,0.3-0.1,0.4
		s-0.1,0.2-0.2,0.2c-0.1,0-0.2,0.1-0.4,0.1H149.2z M153.6,51.8c0-0.3,0-0.5-0.1-0.8s-0.2-0.5-0.3-0.7c-0.2-0.2-0.4-0.4-0.6-0.5
		s-0.6-0.2-0.9-0.2c-0.7,0-1.2,0.2-1.5,0.6c-0.4,0.4-0.6,0.9-0.7,1.6H153.6z"/>
</g>
<g>
	<path class="st2" d="M78,3.6c-7.1,0-12.9,5.7-12.9,12.9c0,0.7,0.1,1.3,0.2,1.9c0,1.1,0.4,3.3,1.8,6.4c1.4,3.1,4.1,7.1,8.8,11.8l2,2
		l0,0l0,0l0,0l0,0l2-2c4.8-4.8,7.4-8.9,8.9-12c1.4-3.1,1.7-5.2,1.7-6.4c0.1-0.6,0.1-1.1,0.1-1.7C90.8,9.4,85,3.6,78,3.6z M88.2,18
		L88.2,18v0.2c0,0.8-0.2,2.6-1.5,5.4c-1.1,2.4-3.1,5.4-6.3,9.1l0,0l0,0l-2.5,2.6l-2.5-2.6c-3.2-3.5-5.1-6.5-6.2-8.9
		c-1.3-2.9-1.5-4.7-1.6-5.5v-0.1v-0.1c0-0.6,0-1,0-1.6c0-2.9,1.1-5.4,3.1-7.3s4.5-3.1,7.3-3.1s5.4,1.1,7.3,3.1
		c1.9,1.9,3.1,4.5,3.1,7.3C88.3,17,88.3,17.4,88.2,18z"/>
	<circle class="st2" cx="78" cy="17" r="4.2"/>
</g>
</svg>
