<?xml version="1.0" encoding="utf-8"?>
<!-- Generator: Adobe Illustrator 25.4.1, SVG Export Plug-In . SVG Version: 6.00 Build 0)  -->
<svg version="1.1" id="Warstwa_1" xmlns="http://www.w3.org/2000/svg" xmlns:xlink="http://www.w3.org/1999/xlink" x="0px" y="0px"
	 viewBox="0 0 38.2 38.2" style="enable-background:new 0 0 38.2 38.2;" xml:space="preserve">
<style type="text/css">
	.st0{fill:#92D35E;}
</style>
<path class="st0" d="M36.9,34.1L25.7,22.9c1.7-2.3,2.8-5.2,2.8-8.3c0-7.7-6.2-13.9-13.9-13.9S0.7,6.9,0.7,14.6
	c0,7.7,6.2,13.9,13.9,13.9c3.1,0,6-1,8.3-2.8l11.3,11.3c0.8,0.8,2,0.8,2.8,0C37.7,36.2,37.7,34.9,36.9,34.1z M4.6,14.6
	c0-5.5,4.4-9.9,9.9-9.9s9.9,4.4,9.9,9.9s-4.4,9.9-9.9,9.9S4.6,20.1,4.6,14.6z"/>
</svg>
